<svg xmlns="http://www.w3.org/2000/svg" height="48" viewBox="0 -960 960 960" width="48"><path d="M465.497-920Q556-920 620.5-856.5 685-793 685-702q0 52-22.5 98T599-526h-34v-50q29-23 44.5-56t15.5-70q0-66-47-112t-113-46q-66 0-113 46t-47 112q0 36.877 15.5 69.938Q336-599 365-576v72q-56-29-88-82t-32-116q0-91 64.5-154.5T465.497-920ZM427-80q-17 0-32-6.5T369-104L163-310l56-58q14-14 31.5-21.5T287-392l78 18v-326q0-42 29-71t71-29q42 0 71 29t29 71v172h26q5 0 9 2t9 4l148 72q24 11 35.5 35.5T799-364l-36 218q-5 29-28 47.5T683-80H427Zm-8-60h281l43-249-183-91h-55v-220q0-18-11-29t-29-11q-18 0-29 11t-11 29v399l-154-33-23 23 171 171Zm281 0H419h281Z"/></svg>